<mxfile host="app.diagrams.net" modified="2024-02-08T10:22:05.205Z" agent="Mozilla/5.0 (Macintosh; Intel Mac OS X 10_15_7) AppleWebKit/537.36 (KHTML, like Gecko) Chrome/121.0.0.0 Safari/537.36" version="23.1.1" etag="4ZnJtM1HrD180VBludTp" type="device" pages="2">
  <diagram id="NNirdLbudJ7Mtjtz16Ia" name="ページ1">
    <mxGraphModel dx="1834" dy="1220" grid="0" gridSize="10" guides="1" tooltips="1" connect="1" arrows="1" fold="1" page="0" pageScale="1" pageWidth="827" pageHeight="1169" math="0" shadow="0">
      <root>
        <mxCell id="0" />
        <mxCell id="1" parent="0" />
        <mxCell id="120" value="" style="rounded=0;whiteSpace=wrap;html=1;fillColor=none;dashed=1;" parent="1" vertex="1">
          <mxGeometry x="-335" y="1" width="497" height="275" as="geometry" />
        </mxCell>
        <mxCell id="86" value="注文" style="swimlane;childLayout=stackLayout;horizontal=1;startSize=30;horizontalStack=0;rounded=1;fontSize=14;fontStyle=0;strokeWidth=2;resizeParent=0;resizeLast=1;shadow=0;dashed=0;align=center;" parent="1" vertex="1">
          <mxGeometry x="210" y="460" width="160" height="260" as="geometry" />
        </mxCell>
        <mxCell id="104" style="edgeStyle=none;html=1;" parent="86" source="87" target="86" edge="1">
          <mxGeometry relative="1" as="geometry" />
        </mxCell>
        <mxCell id="87" value="FK 顧客ID&#xa;&#xa;FK 店舗ID&#xa;&#xa;注文日時&#xa;&#xa;会計済み" style="align=left;strokeColor=none;fillColor=none;spacingLeft=4;fontSize=12;verticalAlign=top;resizable=0;rotatable=0;part=1;" parent="86" vertex="1">
          <mxGeometry y="30" width="160" height="230" as="geometry" />
        </mxCell>
        <mxCell id="88" value="価格" style="swimlane;childLayout=stackLayout;horizontal=1;startSize=30;horizontalStack=0;rounded=1;fontSize=14;fontStyle=0;strokeWidth=2;resizeParent=0;resizeLast=1;shadow=0;dashed=0;align=center;" parent="1" vertex="1">
          <mxGeometry x="450" y="130" width="160" height="120" as="geometry" />
        </mxCell>
        <mxCell id="89" value="価格" style="align=left;strokeColor=none;fillColor=none;spacingLeft=4;fontSize=12;verticalAlign=top;resizable=0;rotatable=0;part=1;" parent="88" vertex="1">
          <mxGeometry y="30" width="160" height="90" as="geometry" />
        </mxCell>
        <mxCell id="96" value="注文詳細" style="swimlane;childLayout=stackLayout;horizontal=1;startSize=30;horizontalStack=0;rounded=1;fontSize=14;fontStyle=0;strokeWidth=2;resizeParent=0;resizeLast=1;shadow=0;dashed=0;align=center;" parent="1" vertex="1">
          <mxGeometry x="-30" y="303" width="160" height="240" as="geometry" />
        </mxCell>
        <mxCell id="97" value="FK 注文ID&#xa;&#xa;FK 商品ID&#xa;&#xa;個数&#xa;&#xa;小計金額" style="align=left;strokeColor=none;fillColor=none;spacingLeft=4;fontSize=12;verticalAlign=top;resizable=0;rotatable=0;part=1;" parent="96" vertex="1">
          <mxGeometry y="30" width="160" height="210" as="geometry" />
        </mxCell>
        <mxCell id="98" value="カテゴリ" style="swimlane;childLayout=stackLayout;horizontal=1;startSize=30;horizontalStack=0;rounded=1;fontSize=14;fontStyle=0;strokeWidth=2;resizeParent=0;resizeLast=1;shadow=0;dashed=0;align=center;" parent="1" vertex="1">
          <mxGeometry x="450" y="280" width="160" height="120" as="geometry" />
        </mxCell>
        <mxCell id="99" value="カテゴリ名" style="align=left;strokeColor=none;fillColor=none;spacingLeft=4;fontSize=12;verticalAlign=top;resizable=0;rotatable=0;part=1;" parent="98" vertex="1">
          <mxGeometry y="30" width="160" height="90" as="geometry" />
        </mxCell>
        <mxCell id="101" value="商品" style="swimlane;childLayout=stackLayout;horizontal=1;startSize=30;horizontalStack=0;rounded=1;fontSize=14;fontStyle=0;strokeWidth=2;resizeParent=0;resizeLast=1;shadow=0;dashed=0;align=center;" parent="1" vertex="1">
          <mxGeometry x="210" y="130" width="160" height="270" as="geometry" />
        </mxCell>
        <mxCell id="102" value="FK カテゴリID&#xa;&#xa;FK 価格ID&#xa;&#xa;商品名" style="align=left;strokeColor=none;fillColor=none;spacingLeft=4;fontSize=12;verticalAlign=top;resizable=0;rotatable=0;part=1;" parent="101" vertex="1">
          <mxGeometry y="30" width="160" height="240" as="geometry" />
        </mxCell>
        <mxCell id="107" value="顧客" style="swimlane;childLayout=stackLayout;horizontal=1;startSize=30;horizontalStack=0;rounded=1;fontSize=14;fontStyle=0;strokeWidth=2;resizeParent=0;resizeLast=1;shadow=0;dashed=0;align=center;" parent="1" vertex="1">
          <mxGeometry x="450" y="460" width="160" height="120" as="geometry" />
        </mxCell>
        <mxCell id="108" value="顧客名&#xa;&#xa;電話番号" style="align=left;strokeColor=none;fillColor=none;spacingLeft=4;fontSize=12;verticalAlign=top;resizable=0;rotatable=0;part=1;" parent="107" vertex="1">
          <mxGeometry y="30" width="160" height="90" as="geometry" />
        </mxCell>
        <mxCell id="109" value="店舗" style="swimlane;childLayout=stackLayout;horizontal=1;startSize=30;horizontalStack=0;rounded=1;fontSize=14;fontStyle=0;strokeWidth=2;resizeParent=0;resizeLast=1;shadow=0;dashed=0;align=center;" parent="1" vertex="1">
          <mxGeometry x="450" y="605" width="160" height="115" as="geometry" />
        </mxCell>
        <mxCell id="110" value="店舗名" style="align=left;strokeColor=none;fillColor=none;spacingLeft=4;fontSize=12;verticalAlign=top;resizable=0;rotatable=0;part=1;" parent="109" vertex="1">
          <mxGeometry y="30" width="160" height="85" as="geometry" />
        </mxCell>
        <mxCell id="112" value="VIEW 注文合計" style="swimlane;childLayout=stackLayout;horizontal=1;startSize=30;horizontalStack=0;rounded=1;fontSize=14;fontStyle=0;strokeWidth=2;resizeParent=0;resizeLast=1;shadow=0;dashed=0;align=center;" parent="1" vertex="1">
          <mxGeometry x="-301" y="71" width="160" height="165" as="geometry" />
        </mxCell>
        <mxCell id="113" value="注文ID&#xa;&#xa;合計皿数&#xa;&#xa;合計金額" style="align=left;strokeColor=none;fillColor=none;spacingLeft=4;fontSize=12;verticalAlign=top;resizable=0;rotatable=0;part=1;" parent="112" vertex="1">
          <mxGeometry y="30" width="160" height="135" as="geometry" />
        </mxCell>
        <mxCell id="114" style="edgeStyle=none;html=1;exitX=0;exitY=0.5;exitDx=0;exitDy=0;endArrow=ERoneToMany;endFill=0;startArrow=ERone;startFill=0;" parent="1" source="89" edge="1">
          <mxGeometry relative="1" as="geometry">
            <mxPoint x="370" y="205" as="targetPoint" />
          </mxGeometry>
        </mxCell>
        <mxCell id="115" style="edgeStyle=none;html=1;exitX=0;exitY=0.5;exitDx=0;exitDy=0;endArrow=ERoneToMany;endFill=0;startArrow=ERone;startFill=0;" parent="1" edge="1">
          <mxGeometry relative="1" as="geometry">
            <mxPoint x="450.0000000000002" y="339.79" as="sourcePoint" />
            <mxPoint x="370.0000000000002" y="339.79" as="targetPoint" />
          </mxGeometry>
        </mxCell>
        <mxCell id="116" style="edgeStyle=none;html=1;exitX=0;exitY=0.5;exitDx=0;exitDy=0;endArrow=ERmany;endFill=0;startArrow=ERone;startFill=0;" parent="1" edge="1">
          <mxGeometry relative="1" as="geometry">
            <mxPoint x="450.0000000000002" y="519.5799999999999" as="sourcePoint" />
            <mxPoint x="370.0000000000002" y="519.5799999999999" as="targetPoint" />
          </mxGeometry>
        </mxCell>
        <mxCell id="117" style="edgeStyle=none;html=1;exitX=0;exitY=0.5;exitDx=0;exitDy=0;endArrow=ERmany;endFill=0;startArrow=ERone;startFill=0;" parent="1" edge="1">
          <mxGeometry relative="1" as="geometry">
            <mxPoint x="450.0000000000002" y="660" as="sourcePoint" />
            <mxPoint x="370.0000000000002" y="660" as="targetPoint" />
          </mxGeometry>
        </mxCell>
        <mxCell id="118" style="edgeStyle=none;html=1;exitX=0;exitY=0.5;exitDx=0;exitDy=0;endArrow=ERoneToMany;endFill=0;startArrow=ERone;startFill=0;" parent="1" edge="1">
          <mxGeometry relative="1" as="geometry">
            <mxPoint x="210.00000000000023" y="350" as="sourcePoint" />
            <mxPoint x="130.00000000000023" y="350" as="targetPoint" />
          </mxGeometry>
        </mxCell>
        <mxCell id="119" style="edgeStyle=none;html=1;exitX=0;exitY=0.5;exitDx=0;exitDy=0;endArrow=ERoneToMany;endFill=0;startArrow=ERone;startFill=0;" parent="1" edge="1">
          <mxGeometry relative="1" as="geometry">
            <mxPoint x="210.00000000000023" y="500" as="sourcePoint" />
            <mxPoint x="130.00000000000023" y="500" as="targetPoint" />
          </mxGeometry>
        </mxCell>
        <mxCell id="125" value="オプション" style="swimlane;childLayout=stackLayout;horizontal=1;startSize=30;horizontalStack=0;rounded=1;fontSize=14;fontStyle=0;strokeWidth=2;resizeParent=0;resizeLast=1;shadow=0;dashed=0;align=center;" parent="1" vertex="1">
          <mxGeometry x="-30" y="605" width="160" height="115" as="geometry" />
        </mxCell>
        <mxCell id="126" value="オプション名&#xa;&#xa;オプション価格" style="align=left;strokeColor=none;fillColor=none;spacingLeft=4;fontSize=12;verticalAlign=top;resizable=0;rotatable=0;part=1;" parent="125" vertex="1">
          <mxGeometry y="30" width="160" height="85" as="geometry" />
        </mxCell>
        <mxCell id="128" value="注文詳細_オプション" style="swimlane;childLayout=stackLayout;horizontal=1;startSize=30;horizontalStack=0;rounded=1;fontSize=14;fontStyle=0;strokeWidth=2;resizeParent=0;resizeLast=1;shadow=0;dashed=0;align=center;" parent="1" vertex="1">
          <mxGeometry x="-288" y="460" width="171" height="231" as="geometry" />
        </mxCell>
        <mxCell id="129" value="FK 注文詳細ID&#xa;&#xa;FK オプションID&#xa;&#xa;オプション付与数" style="align=left;strokeColor=none;fillColor=none;spacingLeft=4;fontSize=12;verticalAlign=top;resizable=0;rotatable=0;part=1;" parent="128" vertex="1">
          <mxGeometry y="30" width="171" height="201" as="geometry" />
        </mxCell>
        <mxCell id="134" style="edgeStyle=none;html=1;exitX=0;exitY=0.25;exitDx=0;exitDy=0;entryX=1.018;entryY=0.826;entryDx=0;entryDy=0;entryPerimeter=0;startArrow=ERone;startFill=0;endArrow=ERzeroToMany;endFill=0;" parent="1" source="126" target="129" edge="1">
          <mxGeometry relative="1" as="geometry" />
        </mxCell>
        <mxCell id="135" style="edgeStyle=none;html=1;entryX=1.01;entryY=0.003;entryDx=0;entryDy=0;entryPerimeter=0;startArrow=ERone;startFill=0;endArrow=ERzeroToMany;endFill=0;" parent="1" target="129" edge="1">
          <mxGeometry relative="1" as="geometry">
            <mxPoint x="-30" y="491" as="sourcePoint" />
          </mxGeometry>
        </mxCell>
        <mxCell id="143" value="VIEW 年月別売上個数" style="swimlane;childLayout=stackLayout;horizontal=1;startSize=30;horizontalStack=0;rounded=1;fontSize=14;fontStyle=0;strokeWidth=2;resizeParent=0;resizeLast=1;shadow=0;dashed=0;align=center;" parent="1" vertex="1">
          <mxGeometry x="-49" y="71" width="160" height="165" as="geometry" />
        </mxCell>
        <mxCell id="144" value="注文年月&#xa;&#xa;商品名&#xa;&#xa;月間売上個数" style="align=left;strokeColor=none;fillColor=none;spacingLeft=4;fontSize=12;verticalAlign=top;resizable=0;rotatable=0;part=1;" parent="143" vertex="1">
          <mxGeometry y="30" width="160" height="135" as="geometry" />
        </mxCell>
        <mxCell id="145" value="VIEW" style="text;html=1;align=center;verticalAlign=middle;resizable=0;points=[];autosize=1;strokeColor=none;fillColor=none;" parent="1" vertex="1">
          <mxGeometry x="-305" y="-32" width="49" height="26" as="geometry" />
        </mxCell>
      </root>
    </mxGraphModel>
  </diagram>
  <diagram id="b7LfUeVBEqd6X1IAEahL" name="クーポン仕様">
    <mxGraphModel dx="2193" dy="1425" grid="0" gridSize="10" guides="1" tooltips="1" connect="1" arrows="1" fold="1" page="0" pageScale="1" pageWidth="827" pageHeight="1169" math="0" shadow="0">
      <root>
        <mxCell id="0" />
        <mxCell id="1" parent="0" />
        <mxCell id="zXelydogq2NKL7B0pQj8-1" value="" style="rounded=0;whiteSpace=wrap;html=1;fillColor=none;dashed=1;" parent="1" vertex="1">
          <mxGeometry x="-335" y="1" width="497" height="275" as="geometry" />
        </mxCell>
        <mxCell id="zXelydogq2NKL7B0pQj8-2" value="注文" style="swimlane;childLayout=stackLayout;horizontal=1;startSize=30;horizontalStack=0;rounded=1;fontSize=14;fontStyle=0;strokeWidth=2;resizeParent=0;resizeLast=1;shadow=0;dashed=0;align=center;" parent="1" vertex="1">
          <mxGeometry x="210" y="460" width="160" height="260" as="geometry" />
        </mxCell>
        <mxCell id="zXelydogq2NKL7B0pQj8-3" style="edgeStyle=none;html=1;" parent="zXelydogq2NKL7B0pQj8-2" source="zXelydogq2NKL7B0pQj8-4" target="zXelydogq2NKL7B0pQj8-2" edge="1">
          <mxGeometry relative="1" as="geometry" />
        </mxCell>
        <mxCell id="zXelydogq2NKL7B0pQj8-4" value="FK 顧客ID&#xa;&#xa;FK 店舗ID&#xa;&#xa;注文日時&#xa;&#xa;会計済み" style="align=left;strokeColor=none;fillColor=none;spacingLeft=4;fontSize=12;verticalAlign=top;resizable=0;rotatable=0;part=1;" parent="zXelydogq2NKL7B0pQj8-2" vertex="1">
          <mxGeometry y="30" width="160" height="230" as="geometry" />
        </mxCell>
        <mxCell id="zXelydogq2NKL7B0pQj8-5" value="価格" style="swimlane;childLayout=stackLayout;horizontal=1;startSize=30;horizontalStack=0;rounded=1;fontSize=14;fontStyle=0;strokeWidth=2;resizeParent=0;resizeLast=1;shadow=0;dashed=0;align=center;" parent="1" vertex="1">
          <mxGeometry x="450" y="130" width="160" height="120" as="geometry" />
        </mxCell>
        <mxCell id="zXelydogq2NKL7B0pQj8-6" value="価格" style="align=left;strokeColor=none;fillColor=none;spacingLeft=4;fontSize=12;verticalAlign=top;resizable=0;rotatable=0;part=1;" parent="zXelydogq2NKL7B0pQj8-5" vertex="1">
          <mxGeometry y="30" width="160" height="90" as="geometry" />
        </mxCell>
        <mxCell id="zXelydogq2NKL7B0pQj8-7" value="注文詳細" style="swimlane;childLayout=stackLayout;horizontal=1;startSize=30;horizontalStack=0;rounded=1;fontSize=14;fontStyle=0;strokeWidth=2;resizeParent=0;resizeLast=1;shadow=0;dashed=0;align=center;" parent="1" vertex="1">
          <mxGeometry x="-30" y="303" width="160" height="240" as="geometry" />
        </mxCell>
        <mxCell id="zXelydogq2NKL7B0pQj8-8" value="FK 注文ID&#xa;&#xa;FK 商品ID&#xa;&#xa;個数&#xa;&#xa;小計金額" style="align=left;strokeColor=none;fillColor=none;spacingLeft=4;fontSize=12;verticalAlign=top;resizable=0;rotatable=0;part=1;" parent="zXelydogq2NKL7B0pQj8-7" vertex="1">
          <mxGeometry y="30" width="160" height="210" as="geometry" />
        </mxCell>
        <mxCell id="zXelydogq2NKL7B0pQj8-9" value="カテゴリ" style="swimlane;childLayout=stackLayout;horizontal=1;startSize=30;horizontalStack=0;rounded=1;fontSize=14;fontStyle=0;strokeWidth=2;resizeParent=0;resizeLast=1;shadow=0;dashed=0;align=center;" parent="1" vertex="1">
          <mxGeometry x="450" y="280" width="160" height="120" as="geometry" />
        </mxCell>
        <mxCell id="zXelydogq2NKL7B0pQj8-10" value="カテゴリ名" style="align=left;strokeColor=none;fillColor=none;spacingLeft=4;fontSize=12;verticalAlign=top;resizable=0;rotatable=0;part=1;" parent="zXelydogq2NKL7B0pQj8-9" vertex="1">
          <mxGeometry y="30" width="160" height="90" as="geometry" />
        </mxCell>
        <mxCell id="GxOVkhCwMkrwK09ommRJ-8" style="edgeStyle=orthogonalEdgeStyle;rounded=0;orthogonalLoop=1;jettySize=auto;html=1;exitX=0.5;exitY=0;exitDx=0;exitDy=0;entryX=0;entryY=0.25;entryDx=0;entryDy=0;startArrow=ERone;startFill=0;endArrow=ERoneToMany;endFill=0;" edge="1" parent="1" source="zXelydogq2NKL7B0pQj8-11" target="GxOVkhCwMkrwK09ommRJ-4">
          <mxGeometry relative="1" as="geometry" />
        </mxCell>
        <mxCell id="zXelydogq2NKL7B0pQj8-11" value="商品" style="swimlane;childLayout=stackLayout;horizontal=1;startSize=30;horizontalStack=0;rounded=1;fontSize=14;fontStyle=0;strokeWidth=2;resizeParent=0;resizeLast=1;shadow=0;dashed=0;align=center;" parent="1" vertex="1">
          <mxGeometry x="210" y="130" width="160" height="270" as="geometry" />
        </mxCell>
        <mxCell id="zXelydogq2NKL7B0pQj8-12" value="FK カテゴリID&#xa;&#xa;FK 価格ID&#xa;&#xa;商品名" style="align=left;strokeColor=none;fillColor=none;spacingLeft=4;fontSize=12;verticalAlign=top;resizable=0;rotatable=0;part=1;" parent="zXelydogq2NKL7B0pQj8-11" vertex="1">
          <mxGeometry y="30" width="160" height="240" as="geometry" />
        </mxCell>
        <mxCell id="zXelydogq2NKL7B0pQj8-13" value="顧客" style="swimlane;childLayout=stackLayout;horizontal=1;startSize=30;horizontalStack=0;rounded=1;fontSize=14;fontStyle=0;strokeWidth=2;resizeParent=0;resizeLast=1;shadow=0;dashed=0;align=center;" parent="1" vertex="1">
          <mxGeometry x="450" y="460" width="160" height="120" as="geometry" />
        </mxCell>
        <mxCell id="zXelydogq2NKL7B0pQj8-14" value="顧客名&#xa;&#xa;電話番号" style="align=left;strokeColor=none;fillColor=none;spacingLeft=4;fontSize=12;verticalAlign=top;resizable=0;rotatable=0;part=1;" parent="zXelydogq2NKL7B0pQj8-13" vertex="1">
          <mxGeometry y="30" width="160" height="90" as="geometry" />
        </mxCell>
        <mxCell id="zXelydogq2NKL7B0pQj8-15" value="店舗" style="swimlane;childLayout=stackLayout;horizontal=1;startSize=30;horizontalStack=0;rounded=1;fontSize=14;fontStyle=0;strokeWidth=2;resizeParent=0;resizeLast=1;shadow=0;dashed=0;align=center;" parent="1" vertex="1">
          <mxGeometry x="450" y="605" width="160" height="115" as="geometry" />
        </mxCell>
        <mxCell id="zXelydogq2NKL7B0pQj8-16" value="店舗名" style="align=left;strokeColor=none;fillColor=none;spacingLeft=4;fontSize=12;verticalAlign=top;resizable=0;rotatable=0;part=1;" parent="zXelydogq2NKL7B0pQj8-15" vertex="1">
          <mxGeometry y="30" width="160" height="85" as="geometry" />
        </mxCell>
        <mxCell id="zXelydogq2NKL7B0pQj8-17" value="VIEW 注文合計" style="swimlane;childLayout=stackLayout;horizontal=1;startSize=30;horizontalStack=0;rounded=1;fontSize=14;fontStyle=0;strokeWidth=2;resizeParent=0;resizeLast=1;shadow=0;dashed=0;align=center;" parent="1" vertex="1">
          <mxGeometry x="-301" y="71" width="160" height="165" as="geometry" />
        </mxCell>
        <mxCell id="zXelydogq2NKL7B0pQj8-18" value="注文ID&#xa;&#xa;合計皿数&#xa;&#xa;合計金額" style="align=left;strokeColor=none;fillColor=none;spacingLeft=4;fontSize=12;verticalAlign=top;resizable=0;rotatable=0;part=1;" parent="zXelydogq2NKL7B0pQj8-17" vertex="1">
          <mxGeometry y="30" width="160" height="135" as="geometry" />
        </mxCell>
        <mxCell id="zXelydogq2NKL7B0pQj8-19" style="edgeStyle=none;html=1;exitX=0;exitY=0.5;exitDx=0;exitDy=0;endArrow=ERoneToMany;endFill=0;startArrow=ERone;startFill=0;" parent="1" source="zXelydogq2NKL7B0pQj8-6" edge="1">
          <mxGeometry relative="1" as="geometry">
            <mxPoint x="370" y="205" as="targetPoint" />
          </mxGeometry>
        </mxCell>
        <mxCell id="zXelydogq2NKL7B0pQj8-20" style="edgeStyle=none;html=1;exitX=0;exitY=0.5;exitDx=0;exitDy=0;endArrow=ERoneToMany;endFill=0;startArrow=ERone;startFill=0;" parent="1" edge="1">
          <mxGeometry relative="1" as="geometry">
            <mxPoint x="450.0000000000002" y="339.78999999999996" as="sourcePoint" />
            <mxPoint x="370.0000000000002" y="339.78999999999996" as="targetPoint" />
          </mxGeometry>
        </mxCell>
        <mxCell id="zXelydogq2NKL7B0pQj8-21" style="edgeStyle=none;html=1;exitX=0;exitY=0.5;exitDx=0;exitDy=0;endArrow=ERmany;endFill=0;startArrow=ERone;startFill=0;" parent="1" edge="1">
          <mxGeometry relative="1" as="geometry">
            <mxPoint x="450.0000000000002" y="519.5799999999999" as="sourcePoint" />
            <mxPoint x="370.0000000000002" y="519.5799999999999" as="targetPoint" />
          </mxGeometry>
        </mxCell>
        <mxCell id="zXelydogq2NKL7B0pQj8-22" style="edgeStyle=none;html=1;exitX=0;exitY=0.5;exitDx=0;exitDy=0;endArrow=ERmany;endFill=0;startArrow=ERone;startFill=0;" parent="1" edge="1">
          <mxGeometry relative="1" as="geometry">
            <mxPoint x="450.0000000000002" y="660.0000000000005" as="sourcePoint" />
            <mxPoint x="370.0000000000002" y="660.0000000000005" as="targetPoint" />
          </mxGeometry>
        </mxCell>
        <mxCell id="zXelydogq2NKL7B0pQj8-23" style="edgeStyle=none;html=1;exitX=0;exitY=0.5;exitDx=0;exitDy=0;endArrow=ERoneToMany;endFill=0;startArrow=ERone;startFill=0;" parent="1" edge="1">
          <mxGeometry relative="1" as="geometry">
            <mxPoint x="210.00000000000023" y="350" as="sourcePoint" />
            <mxPoint x="130.00000000000023" y="350" as="targetPoint" />
          </mxGeometry>
        </mxCell>
        <mxCell id="zXelydogq2NKL7B0pQj8-24" style="edgeStyle=none;html=1;exitX=0;exitY=0.5;exitDx=0;exitDy=0;endArrow=ERoneToMany;endFill=0;startArrow=ERone;startFill=0;" parent="1" edge="1">
          <mxGeometry relative="1" as="geometry">
            <mxPoint x="210.00000000000023" y="500.00000000000045" as="sourcePoint" />
            <mxPoint x="130.00000000000023" y="500.00000000000045" as="targetPoint" />
          </mxGeometry>
        </mxCell>
        <mxCell id="zXelydogq2NKL7B0pQj8-25" value="オプション" style="swimlane;childLayout=stackLayout;horizontal=1;startSize=30;horizontalStack=0;rounded=1;fontSize=14;fontStyle=0;strokeWidth=2;resizeParent=0;resizeLast=1;shadow=0;dashed=0;align=center;" parent="1" vertex="1">
          <mxGeometry x="-30" y="605" width="160" height="115" as="geometry" />
        </mxCell>
        <mxCell id="zXelydogq2NKL7B0pQj8-26" value="オプション名&#xa;&#xa;オプション価格" style="align=left;strokeColor=none;fillColor=none;spacingLeft=4;fontSize=12;verticalAlign=top;resizable=0;rotatable=0;part=1;" parent="zXelydogq2NKL7B0pQj8-25" vertex="1">
          <mxGeometry y="30" width="160" height="85" as="geometry" />
        </mxCell>
        <mxCell id="zXelydogq2NKL7B0pQj8-27" value="注文詳細_オプション" style="swimlane;childLayout=stackLayout;horizontal=1;startSize=30;horizontalStack=0;rounded=1;fontSize=14;fontStyle=0;strokeWidth=2;resizeParent=0;resizeLast=1;shadow=0;dashed=0;align=center;" parent="1" vertex="1">
          <mxGeometry x="-288" y="460" width="171" height="231" as="geometry" />
        </mxCell>
        <mxCell id="zXelydogq2NKL7B0pQj8-28" value="FK 注文詳細ID&#xa;&#xa;FK オプションID&#xa;&#xa;オプション付与数" style="align=left;strokeColor=none;fillColor=none;spacingLeft=4;fontSize=12;verticalAlign=top;resizable=0;rotatable=0;part=1;" parent="zXelydogq2NKL7B0pQj8-27" vertex="1">
          <mxGeometry y="30" width="171" height="201" as="geometry" />
        </mxCell>
        <mxCell id="zXelydogq2NKL7B0pQj8-29" style="edgeStyle=none;html=1;exitX=0;exitY=0.25;exitDx=0;exitDy=0;entryX=1.018;entryY=0.826;entryDx=0;entryDy=0;entryPerimeter=0;startArrow=ERone;startFill=0;endArrow=ERzeroToMany;endFill=0;" parent="1" source="zXelydogq2NKL7B0pQj8-26" target="zXelydogq2NKL7B0pQj8-28" edge="1">
          <mxGeometry relative="1" as="geometry" />
        </mxCell>
        <mxCell id="zXelydogq2NKL7B0pQj8-30" style="edgeStyle=none;html=1;entryX=1.01;entryY=0.003;entryDx=0;entryDy=0;entryPerimeter=0;startArrow=ERone;startFill=0;endArrow=ERzeroToMany;endFill=0;" parent="1" target="zXelydogq2NKL7B0pQj8-28" edge="1">
          <mxGeometry relative="1" as="geometry">
            <mxPoint x="-30" y="491" as="sourcePoint" />
          </mxGeometry>
        </mxCell>
        <mxCell id="zXelydogq2NKL7B0pQj8-31" value="VIEW 年月別売上個数" style="swimlane;childLayout=stackLayout;horizontal=1;startSize=30;horizontalStack=0;rounded=1;fontSize=14;fontStyle=0;strokeWidth=2;resizeParent=0;resizeLast=1;shadow=0;dashed=0;align=center;" parent="1" vertex="1">
          <mxGeometry x="-49" y="71" width="160" height="165" as="geometry" />
        </mxCell>
        <mxCell id="zXelydogq2NKL7B0pQj8-32" value="注文年月&#xa;&#xa;商品名&#xa;&#xa;月間売上個数" style="align=left;strokeColor=none;fillColor=none;spacingLeft=4;fontSize=12;verticalAlign=top;resizable=0;rotatable=0;part=1;" parent="zXelydogq2NKL7B0pQj8-31" vertex="1">
          <mxGeometry y="30" width="160" height="135" as="geometry" />
        </mxCell>
        <mxCell id="zXelydogq2NKL7B0pQj8-33" value="VIEW" style="text;html=1;align=center;verticalAlign=middle;resizable=0;points=[];autosize=1;strokeColor=none;fillColor=none;" parent="1" vertex="1">
          <mxGeometry x="-305" y="-32" width="49" height="26" as="geometry" />
        </mxCell>
        <mxCell id="GxOVkhCwMkrwK09ommRJ-9" style="edgeStyle=orthogonalEdgeStyle;rounded=0;orthogonalLoop=1;jettySize=auto;html=1;exitX=0.5;exitY=0;exitDx=0;exitDy=0;entryX=1;entryY=0.25;entryDx=0;entryDy=0;startArrow=ERone;startFill=0;endArrow=ERoneToMany;endFill=0;" edge="1" parent="1" source="GxOVkhCwMkrwK09ommRJ-1" target="GxOVkhCwMkrwK09ommRJ-4">
          <mxGeometry relative="1" as="geometry" />
        </mxCell>
        <mxCell id="GxOVkhCwMkrwK09ommRJ-1" value="クーポン" style="swimlane;childLayout=stackLayout;horizontal=1;startSize=30;horizontalStack=0;rounded=1;fontSize=14;fontStyle=0;strokeWidth=2;resizeParent=0;resizeLast=1;shadow=0;dashed=0;align=center;" vertex="1" parent="1">
          <mxGeometry x="687" y="280" width="160" height="288" as="geometry" />
        </mxCell>
        <mxCell id="GxOVkhCwMkrwK09ommRJ-2" value="クーポンID&#xa;&#xa;クーポンコード&#xa;&#xa;クーポンの種類&#xa;　商品全体からの値引き&#xa;　セット商品から%引き&#xa;&#xa;値引き額&#xa;&#xa;値引率&#xa;&#xa;クーポン期限&#xa;&#xa;説明文" style="align=left;strokeColor=none;fillColor=none;spacingLeft=4;fontSize=12;verticalAlign=top;resizable=0;rotatable=0;part=1;" vertex="1" parent="GxOVkhCwMkrwK09ommRJ-1">
          <mxGeometry y="30" width="160" height="258" as="geometry" />
        </mxCell>
        <mxCell id="GxOVkhCwMkrwK09ommRJ-3" value="クーポン_商品の関連付け" style="swimlane;childLayout=stackLayout;horizontal=1;startSize=30;horizontalStack=0;rounded=1;fontSize=14;fontStyle=0;strokeWidth=2;resizeParent=0;resizeLast=1;shadow=0;dashed=0;align=center;" vertex="1" parent="1">
          <mxGeometry x="434" y="-72" width="186" height="163" as="geometry" />
        </mxCell>
        <mxCell id="GxOVkhCwMkrwK09ommRJ-4" value="FK クーポンID&#xa;&#xa;FK 商品ID&#xa;&#xa;" style="align=left;strokeColor=none;fillColor=none;spacingLeft=4;fontSize=12;verticalAlign=top;resizable=0;rotatable=0;part=1;" vertex="1" parent="GxOVkhCwMkrwK09ommRJ-3">
          <mxGeometry y="30" width="186" height="133" as="geometry" />
        </mxCell>
        <mxCell id="GxOVkhCwMkrwK09ommRJ-5" value="クーポン_注文の関連付け" style="swimlane;childLayout=stackLayout;horizontal=1;startSize=30;horizontalStack=0;rounded=1;fontSize=14;fontStyle=0;strokeWidth=2;resizeParent=0;resizeLast=1;shadow=0;dashed=0;align=center;" vertex="1" parent="1">
          <mxGeometry x="442" y="748" width="186" height="146" as="geometry" />
        </mxCell>
        <mxCell id="GxOVkhCwMkrwK09ommRJ-6" value="FK クーポンID&#xa;&#xa;FK 注文ID&#xa;&#xa;" style="align=left;strokeColor=none;fillColor=none;spacingLeft=4;fontSize=12;verticalAlign=top;resizable=0;rotatable=0;part=1;" vertex="1" parent="GxOVkhCwMkrwK09ommRJ-5">
          <mxGeometry y="30" width="186" height="116" as="geometry" />
        </mxCell>
        <mxCell id="GxOVkhCwMkrwK09ommRJ-10" style="edgeStyle=orthogonalEdgeStyle;rounded=0;orthogonalLoop=1;jettySize=auto;html=1;exitX=0.5;exitY=1;exitDx=0;exitDy=0;entryX=0;entryY=0.5;entryDx=0;entryDy=0;startArrow=ERone;startFill=0;endArrow=ERoneToMany;endFill=0;" edge="1" parent="1" source="zXelydogq2NKL7B0pQj8-4" target="GxOVkhCwMkrwK09ommRJ-6">
          <mxGeometry relative="1" as="geometry" />
        </mxCell>
        <mxCell id="GxOVkhCwMkrwK09ommRJ-11" style="edgeStyle=orthogonalEdgeStyle;rounded=0;orthogonalLoop=1;jettySize=auto;html=1;exitX=0.5;exitY=1;exitDx=0;exitDy=0;entryX=1;entryY=0.5;entryDx=0;entryDy=0;startArrow=ERone;startFill=0;endArrow=ERoneToMany;endFill=0;" edge="1" parent="1" source="GxOVkhCwMkrwK09ommRJ-2" target="GxOVkhCwMkrwK09ommRJ-6">
          <mxGeometry relative="1" as="geometry" />
        </mxCell>
      </root>
    </mxGraphModel>
  </diagram>
</mxfile>
